# xmcd
#
# Track frame offsets:
#	150
#	16355
#	33477
#	48675
#	72290
#	97712
#	115615
#	135105
#	148390
#	165942
#
# Disc length: 2622 seconds
#
# Revision: 0
# Processed by: cddbd v1.5PL3 Copyright (c) Steve Scherf et al.
# Submitted via: dBpowerAMP V4.0
#
DISCID=7b0a3c0a
DTITLE=Carolyn Wennblom - Bees To The Honey
DYEAR=1900
DGENRE=Country
TTITLE0=Where I Come From
TTITLE1=Morningstar
TTITLE2=Tell It To The Raven
TTITLE3=51%
TTITLE4=The Heart Speaks
TTITLE5=Rowboat
TTITLE6=Little Birdie
TTITLE7=If You Don't Want My Love
TTITLE8=Next To Last
TTITLE9=Jenny
EXTD=
EXTT0=
EXTT1=
EXTT2=
EXTT3=
EXTT4=
EXTT5=
EXTT6=
EXTT7=
EXTT8=
EXTT9=
PLAYORDER=
